<?xml version="1.0" encoding="utf-8"?>
<!-- Generator: Adobe Illustrator 19.0.1, SVG Export Plug-In . SVG Version: 6.00 Build 0)  -->
<svg version="1.1" id="Layer_1" xmlns="http://www.w3.org/2000/svg" xmlns:xlink="http://www.w3.org/1999/xlink" x="0px" y="0px"
	 width="960px" height="560px" viewBox="0 0 960 560" style="enable-background:new 0 0 960 560;" xml:space="preserve">
<style type="text/css">
	.st0{fill:#CDCDCD;}
	.st1{fill:#434343;}
	.st2{fill:#BAD5F2;}
	.st3{fill:#1F43A2;}
	.st4{fill:#383838;}
	.st5{fill:#50ABFD;}
	.st6{fill:#8FBBEA;}
	.st7{fill:#595959;}
	.st8{fill:#AAD2F1;}
	.st9{fill:#333333;}
</style>
<g>
	<path class="st8" d="M98.1,166.5H55v-35.1h123.5v35.1h-43.1v225H98.1V166.5z"/>
	<path class="st8" d="M165.7,131.4h37.3v111.4h46V131.4h37.3v260.1H249V275.7h-46v115.8h-37.3V131.4z"/>
	<path class="st8" d="M315.1,131.4h37.3v260.1h-37.3V131.4z"/>
	<path class="st8" d="M379.7,131.4h35.8l56.3,156.7h0.7V131.4h37.3v260.1h-35.1l-57-156.4H417v156.4h-37.3V131.4z"/>
</g>
<g>
	<path class="st3" d="M532.1,131.4h31.1l58.1,260.1h-37.3l-11-55.9h-50.8l-11,55.9H474L532.1,131.4z M547.8,206.3h-0.7l-18.3,94.3
		H566L547.8,206.3z"/>
	<path class="st3" d="M632.5,131.4h111.1v35.1h-73.8v76.4h64.3v35.1h-64.3v76.4h73.8v37.3H632.5V131.4z"/>
	<path class="st3" d="M757.5,131.4h59.9c43.8,0,65.8,25.5,65.8,76.4c0,15.1-2.4,28.1-7.1,38.9c-4.7,10.8-13.1,19.5-25,26.1
		l40.2,118.7h-39.5L817,280.4h-22.3v111.1h-37.3V131.4z M794.7,247.6h21.2c6.6,0,11.8-0.9,15.7-2.7c3.9-1.8,6.9-4.4,9-7.9
		c2.1-3.4,3.5-7.6,4.2-12.6c0.7-5,1.1-10.8,1.1-17.4s-0.4-12.4-1.1-17.4c-0.7-5-2.3-9.3-4.6-12.8c-2.3-3.5-5.5-6.1-9.7-7.9
		c-4.1-1.7-9.6-2.6-16.4-2.6h-19.4V247.6z"/>
</g>
<circle class="st3" cx="716.9" cy="95.7" r="20.7"/>
<circle class="st3" cx="657.3" cy="95.7" r="20.7"/>
</svg>
